<svg xmlns="http://www.w3.org/2000/svg" viewBox="0 0 252.65 252.65">
  <path class="line letter-n main-word" d="M8.67,126.44H77.4V98.34a8,8,0,0,1,16.09,0v70.49"></path>
  <line class="line letter-i main-word" x1="109.93" y1="155.07" x2="109.93" y2="103.89"></line>
  <line class="line letter-i-dot" x1="109.93" y1="90.32" x2="109.93" y2="90.29"></line>
  <path class="line letter-n2 main-word" d="M126.51,185.49V75.21a8,8,0,0,1,16.09,0v72.88"></path>
  <path class="line letter-a main-word" d="M159.13,161.22V98.34a8,8,0,0,1,16.09,0v28.1H244"></path>
  <line class="line letter-a-bar main-word" x1="188.73" y1="156.03" x2="192.2" y2="156.03"></line>
  <path class="line circle main-word" d="M244,125.76A117.47,117.47,0,0,0,9,125.76"></path>
  <line class="line dot-fm sub-word" x1="175.81" y1="162.29" x2="175.81" y2="162.26"></line>
  <path class="line letter-f sub-word" d="M188.73,162.47V146.76a2.5,2.5,0,0,1,5,0v4.79"></path>
  <line class="line letter-f-bar sub-word" x1="159.13" y1="113.2" x2="175.22" y2="113.2"></line>
  <path class="line letter-m sub-word" d="M198.51,162.47V146.76a2.48,2.48,0,0,1,2.47-2.47h0a2.73,2.73,0,0,1,2.76,2.47l-.28,15.71V146.76a2.5,2.5,0,0,1,5,0v15.71"></path>
</svg>
